<?xml version="1.0" encoding="UTF-8" standalone="no"?>
<!-- Uploaded to: SVG Repo, www.svgrepo.com, Generator: SVG Repo Mixer Tools -->

<svg
   fill="#000000"
   width="347.66223"
   height="270.35052"
   viewBox="0 0 13.906489 10.814021"
   version="1.1"
   id="svg1391"
   xmlns="http://www.w3.org/2000/svg"
   xmlns:svg="http://www.w3.org/2000/svg">
  <defs
     id="defs1395" />
  <path
     d="M 12.215585,0.22502541 C 12.215585,0.22502541 10.537324,0 6.9330159,0 3.4456484,0 1.6902705,0.22502541 1.6902705,0.22502541 A 1.6909025,1.8022245 0 0 0 1.1825621e-7,2.0272499 V 8.7874445 A 1.6909025,1.8022245 0 0 0 1.6902705,10.590343 c 0,0 1.6321159,0.223678 5.2427454,0.223678 3.6087341,0 5.2825691,-0.223678 5.2825691,-0.223678 A 1.6896382,1.8008771 0 0 0 13.906488,8.7874445 V 2.0259025 A 1.6896382,1.8008771 0 0 0 12.215585,0.22502541 Z M 5.0954635,8.0847454 V 2.7319702 l 4.5094944,2.6747033 z"
     id="path1389"
     style="fill:#9b9b9b;fill-opacity:1;stroke:none;stroke-width:0.623876;stroke-dasharray:none" />
</svg>
