<?xml version="1.0" encoding="UTF-8" standalone="no"?>
<!-- Uploaded to: SVG Repo, www.svgrepo.com, Generator: SVG Repo Mixer Tools -->

<svg
   fill="#000000"
   width="560.20001"
   height="560.17499"
   viewBox="0 0 22.408 22.407"
   version="1.1"
   id="svg6"
   xmlns="http://www.w3.org/2000/svg"
   xmlns:svg="http://www.w3.org/2000/svg">
  <defs
     id="defs10" />
  <title
     id="title2">phone</title>
  <path
     d="m 0.001,5.5939999 c 0,0.938 0.344,1.969 0.781,3.063 0.437,1.094 1,2.1250001 1.438,2.9060001 1.188,2.063 2.719,4.094 4.469,5.781 1.75,1.687 3.813,3.094 6.125,3.938 1.344,0.531 2.688,1.125 4.188,1.125 0.75,0 1.813,-0.281 2.781,-0.688 0.938,-0.406 1.781,-1.031 2.094,-1.781 0.125,-0.281 0.281,-0.656 0.375,-1.094 0.094,-0.406 0.156,-0.813 0.156,-1.094 0,-0.156 0,-0.313 -0.031,-0.344 -0.094,-0.188 -0.313,-0.344 -0.563,-0.5 -0.563,-0.281 -0.656,-0.375 -1.5,-0.875 -0.875,-0.5 -1.781,-1.063 -2.563,-1.469 -0.375,-0.219 -0.625,-0.313 -0.719,-0.313 -0.5,0 -1.125,0.688 -1.656,1.438 -0.563,0.75 -1.188,1.438 -1.625,1.438 -0.219,0 -0.438,-0.094 -0.688,-0.25 -0.25,-0.156 -0.5,-0.281 -0.656,-0.375 C 9.657,14.937 7.813,13.094 6.251,10.375 6.063,10.062 5.626,9.4059999 5.626,9.0619999 c 0,-0.406 0.563,-0.875 1.125,-1.375 0.531,-0.469 1.094,-1.031 1.094,-1.719 0,-0.094 -0.063,-0.375 -0.188,-0.781 -0.281,-0.813 -0.656,-1.75 -0.969,-2.656 -0.156,-0.438 -0.281,-0.75 -0.313,-0.906 -0.063,-0.094 -0.094,-0.219 -0.125,-0.375 -0.031,-0.156 -0.094,-0.28100004 -0.125,-0.40600004 -0.094,-0.281 -0.25,-0.5 -0.406,-0.625 -0.156,-0.063 -0.531,-0.156 -0.906,-0.188 -0.375,0 -0.813,-0.0309999973291 -1,-0.0309999973291 -0.094,0 -0.219,0 -0.344,0.0309999973291 H 3.063 c -1,0.438 -1.719,1.31300004 -2.25,2.34400004 -0.5,1.031 -0.813,2.188 -0.813,3.219 z"
     id="path4"
     style="fill:#ffffff;fill-opacity:1" />
</svg>
