<?xml version="1.0" encoding="UTF-8" standalone="no"?>
<!-- Uploaded to: SVG Repo, www.svgrepo.com, Generator: SVG Repo Mixer Tools -->

<svg
   fill="#000000"
   width="800"
   height="800"
   viewBox="0 0 32 32"
   version="1.1"
   id="svg6"
   xmlns="http://www.w3.org/2000/svg"
   xmlns:svg="http://www.w3.org/2000/svg">
  <defs
     id="defs10" />
  <title
     id="title2">phone</title>
  <path
     d="m 0,10.375 c 0,0.938 0.344,1.969 0.781,3.063 0.437,1.094 1,2.125 1.438,2.906 1.188,2.063 2.719,4.094 4.469,5.781 1.75,1.687 3.813,3.094 6.125,3.938 1.344,0.531 2.688,1.125 4.188,1.125 0.75,0 1.813,-0.281 2.781,-0.688 0.938,-0.406 1.781,-1.031 2.094,-1.781 0.125,-0.281 0.281,-0.656 0.375,-1.094 0.094,-0.406 0.156,-0.813 0.156,-1.094 0,-0.156 0,-0.313 -0.031,-0.344 -0.094,-0.188 -0.313,-0.344 -0.563,-0.5 -0.563,-0.281 -0.656,-0.375 -1.5,-0.875 -0.875,-0.5 -1.781,-1.063 -2.563,-1.469 -0.375,-0.219 -0.625,-0.313 -0.719,-0.313 -0.5,0 -1.125,0.688 -1.656,1.438 -0.563,0.75 -1.188,1.438 -1.625,1.438 -0.219,0 -0.438,-0.094 -0.688,-0.25 -0.25,-0.156 -0.5,-0.281 -0.656,-0.375 C 9.656,19.718 7.812,17.875 6.25,15.156 6.062,14.843 5.625,14.187 5.625,13.843 5.625,13.437 6.188,12.968 6.75,12.468 7.281,11.999 7.844,11.437 7.844,10.749 7.844,10.655 7.781,10.374 7.656,9.968 7.375,9.155 7,8.218 6.687,7.312 6.531,6.874 6.406,6.562 6.374,6.406 6.311,6.312 6.28,6.187 6.249,6.031 6.218,5.875 6.155,5.75 6.124,5.625 6.03,5.344 5.874,5.125 5.718,5 5.562,4.937 5.187,4.844 4.812,4.812 c -0.375,0 -0.813,-0.031 -1,-0.031 -0.094,0 -0.219,0 -0.344,0.031 H 3.062 c -1,0.438 -1.719,1.313 -2.25,2.344 -0.5,1.031 -0.813,2.188 -0.813,3.219 z"
     id="path4"
     style="fill:#ffffff;fill-opacity:1" />
</svg>
