<?xml version="1.0" encoding="UTF-8" standalone="no"?>
<!-- Uploaded to: SVG Repo, www.svgrepo.com, Generator: SVG Repo Mixer Tools -->

<svg
   fill="#000000"
   width="550.00012"
   height="401.27502"
   viewBox="0 0 22.000005 16.051001"
   version="1.1"
   id="svg1391"
   xmlns="http://www.w3.org/2000/svg"
   xmlns:svg="http://www.w3.org/2000/svg">
  <defs
     id="defs1395" />
  <path
     d="M 19.325,0.3340001 C 19.325,0.3340001 16.67,9.5367431e-8 10.968,9.5367431e-8 5.4510005,9.5367431e-8 2.6740005,0.3340001 2.6740005,0.3340001 A 2.675,2.675 0 0 0 4.7683716e-7,3.0090001 V 13.043 A 2.675,2.675 0 0 0 2.6740005,15.719 c 0,0 2.582,0.332 8.2939995,0.332 5.709,0 8.357,-0.332 8.357,-0.332 A 2.673,2.673 0 0 0 22,13.043 V 3.0070001 a 2.673,2.673 0 0 0 -2.675,-2.673 z M 8.0610005,12 V 4.0550001 l 7.1339995,3.97 z"
     id="path1389"
     style="fill:#9b9b9b;fill-opacity:1" />
</svg>
